<svg width="23" height="23" viewBox="0 0 23 23" fill="none" xmlns="http://www.w3.org/2000/svg">
<g opacity="0.6">
<path d="M11.4998 21.0833C16.7926 21.0833 21.0832 16.7927 21.0832 11.5C21.0832 6.20726 16.7926 1.91666 11.4998 1.91666C6.20711 1.91666 1.9165 6.20726 1.9165 11.5C1.9165 16.7927 6.20711 21.0833 11.4998 21.0833Z" stroke="white" stroke-width="1.5" stroke-linecap="round" stroke-linejoin="round"/>
<path d="M7.66686 2.875H8.6252C6.75645 8.47167 6.75645 14.5283 8.6252 20.125H7.66686" stroke="white" stroke-width="1.5" stroke-linecap="round" stroke-linejoin="round"/>
<path d="M14.375 2.875C16.2438 8.47167 16.2438 14.5283 14.375 20.125" stroke="white" stroke-width="1.5" stroke-linecap="round" stroke-linejoin="round"/>
<path d="M2.875 15.3333V14.375C8.47167 16.2438 14.5283 16.2438 20.125 14.375V15.3333" stroke="white" stroke-width="1.5" stroke-linecap="round" stroke-linejoin="round"/>
<path d="M2.875 8.62501C8.47167 6.75626 14.5283 6.75626 20.125 8.62501" stroke="white" stroke-width="1.5" stroke-linecap="round" stroke-linejoin="round"/>
</g>
</svg>
