<svg width="16" height="16" viewBox="0 0 16 16" fill="none" xmlns="http://www.w3.org/2000/svg">
<path d="M14.6667 6.66666V8.66666C14.6667 11.3333 13.3334 12.6667 10.6667 12.6667H10.3334C10.1267 12.6667 9.92671 12.7667 9.80004 12.9333L8.80004 14.2667C8.36004 14.8533 7.64004 14.8533 7.20004 14.2667L6.20004 12.9333C6.09337 12.7867 5.84671 12.6667 5.66671 12.6667H5.33337C2.66671 12.6667 1.33337 12 1.33337 8.66666V5.33333C1.33337 2.66666 2.66671 1.33333 5.33337 1.33333H9.33337" stroke="#1A1A1A" stroke-width="1.5" stroke-miterlimit="10" stroke-linecap="round" stroke-linejoin="round"/>
<path d="M13 4.66666C13.9205 4.66666 14.6667 3.92047 14.6667 2.99999C14.6667 2.07952 13.9205 1.33333 13 1.33333C12.0796 1.33333 11.3334 2.07952 11.3334 2.99999C11.3334 3.92047 12.0796 4.66666 13 4.66666Z" stroke="#1A1A1A" stroke-width="1.5" stroke-linecap="round" stroke-linejoin="round"/>
<path d="M10.6643 7.33333H10.6703" stroke="#1A1A1A" stroke-width="2" stroke-linecap="round" stroke-linejoin="round"/>
<path d="M7.99703 7.33333H8.00302" stroke="#1A1A1A" stroke-width="2" stroke-linecap="round" stroke-linejoin="round"/>
<path d="M5.32967 7.33333H5.33566" stroke="#1A1A1A" stroke-width="2" stroke-linecap="round" stroke-linejoin="round"/>
<g opacity="0.7">
</svg>
