<svg width="23" height="23" viewBox="0 0 23 23" fill="none" xmlns="http://www.w3.org/2000/svg">
<g opacity="0.6">
<path d="M11.6533 10.4171C11.5575 10.4075 11.4425 10.4075 11.3371 10.4171C9.05625 10.3404 7.245 8.47166 7.245 6.17166C7.245 3.82374 9.1425 1.91666 11.5 1.91666C13.8479 1.91666 15.755 3.82374 15.755 6.17166C15.7454 8.47166 13.9342 10.3404 11.6533 10.4171Z" stroke="white" stroke-width="1.5" stroke-linecap="round" stroke-linejoin="round"/>
<path d="M6.86169 13.9533C4.54252 15.5058 4.54252 18.0358 6.86169 19.5788C9.49711 21.3421 13.8192 21.3421 16.4546 19.5788C18.7738 18.0263 18.7738 15.4963 16.4546 13.9533C13.8288 12.1996 9.50669 12.1996 6.86169 13.9533Z" stroke="white" stroke-width="1.5" stroke-linecap="round" stroke-linejoin="round"/>
</g>
</svg>
